# xmcd CD database file
#
# Track frame offsets:
#	150
#	14809
#	32385
#	50690
#	71323
#	94882
#	111313
#	131061
#	151311
#	177194
#	192673
#	209562
#	227161
#	251579
#	265050
#	282620
#	307703
#
# Disc length: 4392 seconds
#
# Revision: 0
# Processed by: cddbd v1.4PL0 Copyright (c) Steve Scherf et al.
# Submitted via: CDex 1.50
#
DISCID=f9112611
DTITLE=diverse artists - Hessen Jazz Idstein 2003
DYEAR=2003
DGENRE=Jazz
TTITLE0=K.J. Dallaway and Friends - just cooling out
TTITLE1=triosence - waltz for andrea
TTITLE2=HCC Bigband - over the rainbow
TTITLE3=Lousiana All Stars - Puttin´on the Ritz
TTITLE4=Stefanie Hoevel - Sweet Loraine
TTITLE5=Bigband Landeck - Birdland
TTITLE6=Angi Domdey - All The Divine
TTITLE7=Matthias Petzold Working Band - Dragon City
TTITLE8=Hawe Schneider and Friends - My Old Norwegian Sweater
TTITLE9=Big Band Erzhausen - Good Grief and Gravy
TTITLE10=Oldtime Jaz Collegium - Jeep Blues
TTITLE11=Lerchenheide Swing Five - just a closer walk with thee
TTITLE12=RhineStream JazzBand - Kansas city
TTITLE13=Nightshift - New coat of paint
TTITLE14=Jennifer and Band - Time is a healer
TTITLE15=Florian Bührich Trio - All off me
TTITLE16=Boogaloo - Miss Marple
EXTD=YEAR: 2003
EXTT0=
EXTT1=
EXTT2=
EXTT3=
EXTT4=
EXTT5=
EXTT6=
EXTT7=
EXTT8=
EXTT9=
EXTT10=
EXTT11=
EXTT12=
EXTT13=
EXTT14=
EXTT15=
EXTT16=
PLAYORDER=
